<mxfile host="Electron" agent="Mozilla/5.0 (Windows NT 10.0; Win64; x64) AppleWebKit/537.36 (KHTML, like Gecko) draw.io/26.0.16 Chrome/132.0.6834.196 Electron/34.2.0 Safari/537.36" version="26.0.16">
  <diagram name="Page-1" id="e7e014a7-5840-1c2e-5031-d8a46d1fe8dd">
    <mxGraphModel dx="1391" dy="686" grid="1" gridSize="10" guides="1" tooltips="1" connect="1" arrows="1" fold="1" page="1" pageScale="1" pageWidth="1169" pageHeight="826" background="none" math="0" shadow="0">
      <root>
        <mxCell id="0" />
        <mxCell id="1" parent="0" />
        <mxCell id="2" value="Admin" style="swimlane;whiteSpace=wrap" parent="1" vertex="1">
          <mxGeometry x="100" y="128" width="344.5" height="692" as="geometry" />
        </mxCell>
        <mxCell id="5" value="" style="ellipse;shape=startState;fillColor=#000000;strokeColor=#ff0000;" parent="2" vertex="1">
          <mxGeometry x="134.5" y="40" width="30" height="30" as="geometry" />
        </mxCell>
        <mxCell id="6" value="" style="edgeStyle=elbowEdgeStyle;elbow=horizontal;verticalAlign=bottom;endArrow=open;endSize=8;strokeColor=#FF0000;endFill=1;rounded=0" parent="2" source="5" edge="1">
          <mxGeometry x="100" y="40" as="geometry">
            <mxPoint x="150" y="110" as="targetPoint" />
          </mxGeometry>
        </mxCell>
        <mxCell id="LnioH0rZ75ULBffa3E_T-41" value="Chọn chức năng quản lý tài khoản" style="rounded=1;whiteSpace=wrap;html=1;" vertex="1" parent="2">
          <mxGeometry x="90" y="112" width="104.5" height="48" as="geometry" />
        </mxCell>
        <mxCell id="LnioH0rZ75ULBffa3E_T-49" value="Yêu cầu đăng nhập" style="rounded=1;whiteSpace=wrap;html=1;" vertex="1" parent="2">
          <mxGeometry x="90" y="212" width="104.5" height="48" as="geometry" />
        </mxCell>
        <mxCell id="LnioH0rZ75ULBffa3E_T-54" value="Lựa chọn chức năng" style="rounded=1;whiteSpace=wrap;html=1;" vertex="1" parent="2">
          <mxGeometry x="90" y="292" width="104.5" height="48" as="geometry" />
        </mxCell>
        <mxCell id="LnioH0rZ75ULBffa3E_T-55" value="" style="shape=line;html=1;strokeWidth=6;strokeColor=#ff0000;" vertex="1" parent="2">
          <mxGeometry x="42.25" y="372" width="200" height="10" as="geometry" />
        </mxCell>
        <mxCell id="LnioH0rZ75ULBffa3E_T-57" value="" style="endArrow=classic;html=1;rounded=0;exitX=0.5;exitY=1;exitDx=0;exitDy=0;" edge="1" parent="2" source="LnioH0rZ75ULBffa3E_T-54">
          <mxGeometry width="50" height="50" relative="1" as="geometry">
            <mxPoint x="180" y="462" as="sourcePoint" />
            <mxPoint x="142.25" y="372" as="targetPoint" />
          </mxGeometry>
        </mxCell>
        <mxCell id="LnioH0rZ75ULBffa3E_T-58" value="" style="endArrow=classic;html=1;rounded=0;exitX=0;exitY=0.5;exitDx=0;exitDy=0;exitPerimeter=0;entryX=0.25;entryY=0;entryDx=0;entryDy=0;" edge="1" parent="2" source="LnioH0rZ75ULBffa3E_T-55" target="LnioH0rZ75ULBffa3E_T-63">
          <mxGeometry width="50" height="50" relative="1" as="geometry">
            <mxPoint x="70" y="482" as="sourcePoint" />
            <mxPoint x="60" y="432" as="targetPoint" />
          </mxGeometry>
        </mxCell>
        <mxCell id="LnioH0rZ75ULBffa3E_T-61" value="" style="endArrow=classic;html=1;rounded=0;exitX=0.689;exitY=0.374;exitDx=0;exitDy=0;exitPerimeter=0;entryX=0.5;entryY=0;entryDx=0;entryDy=0;" edge="1" parent="2" source="LnioH0rZ75ULBffa3E_T-55" target="LnioH0rZ75ULBffa3E_T-76">
          <mxGeometry width="50" height="50" relative="1" as="geometry">
            <mxPoint x="180.85000000000002" y="372" as="sourcePoint" />
            <mxPoint x="220" y="432" as="targetPoint" />
            <Array as="points" />
          </mxGeometry>
        </mxCell>
        <mxCell id="LnioH0rZ75ULBffa3E_T-63" value="Tra cứu thông tin tài khoản" style="rounded=1;whiteSpace=wrap;html=1;" vertex="1" parent="2">
          <mxGeometry x="10" y="432" width="65" height="48" as="geometry" />
        </mxCell>
        <mxCell id="LnioH0rZ75ULBffa3E_T-76" value="Mở khóa tài khoản" style="rounded=1;whiteSpace=wrap;html=1;" vertex="1" parent="2">
          <mxGeometry x="170" y="432" width="65" height="48" as="geometry" />
        </mxCell>
        <mxCell id="LnioH0rZ75ULBffa3E_T-75" value="Khóa tài khoản" style="rounded=1;whiteSpace=wrap;html=1;" vertex="1" parent="2">
          <mxGeometry x="90" y="432" width="65" height="48" as="geometry" />
        </mxCell>
        <mxCell id="LnioH0rZ75ULBffa3E_T-59" value="" style="endArrow=classic;html=1;rounded=0;exitX=0.45;exitY=0.724;exitDx=0;exitDy=0;exitPerimeter=0;entryX=0.5;entryY=0;entryDx=0;entryDy=0;" edge="1" parent="2" source="LnioH0rZ75ULBffa3E_T-55" target="LnioH0rZ75ULBffa3E_T-75">
          <mxGeometry width="50" height="50" relative="1" as="geometry">
            <mxPoint x="180" y="422" as="sourcePoint" />
            <mxPoint x="140" y="432" as="targetPoint" />
          </mxGeometry>
        </mxCell>
        <mxCell id="LnioH0rZ75ULBffa3E_T-77" value="" style="endArrow=classic;html=1;rounded=0;exitX=1;exitY=0.5;exitDx=0;exitDy=0;exitPerimeter=0;entryX=0.5;entryY=0;entryDx=0;entryDy=0;" edge="1" parent="2" source="LnioH0rZ75ULBffa3E_T-55" target="LnioH0rZ75ULBffa3E_T-78">
          <mxGeometry width="50" height="50" relative="1" as="geometry">
            <mxPoint x="250" y="442" as="sourcePoint" />
            <mxPoint x="270" y="432" as="targetPoint" />
          </mxGeometry>
        </mxCell>
        <mxCell id="LnioH0rZ75ULBffa3E_T-78" value="Chỉnh sửa thông tin cá nhân" style="rounded=1;whiteSpace=wrap;html=1;" vertex="1" parent="2">
          <mxGeometry x="242.25" y="432" width="65" height="48" as="geometry" />
        </mxCell>
        <mxCell id="LnioH0rZ75ULBffa3E_T-80" value="" style="endArrow=classic;html=1;rounded=0;exitX=0.5;exitY=1;exitDx=0;exitDy=0;entryX=0;entryY=0.5;entryDx=0;entryDy=0;entryPerimeter=0;" edge="1" parent="2" source="LnioH0rZ75ULBffa3E_T-63" target="LnioH0rZ75ULBffa3E_T-84">
          <mxGeometry width="50" height="50" relative="1" as="geometry">
            <mxPoint x="80" y="582" as="sourcePoint" />
            <mxPoint x="80" y="542" as="targetPoint" />
          </mxGeometry>
        </mxCell>
        <mxCell id="LnioH0rZ75ULBffa3E_T-84" value="" style="shape=line;html=1;strokeWidth=6;strokeColor=#ff0000;" vertex="1" parent="2">
          <mxGeometry x="60" y="552" width="200" height="10" as="geometry" />
        </mxCell>
        <mxCell id="LnioH0rZ75ULBffa3E_T-85" value="" style="edgeStyle=orthogonalEdgeStyle;html=1;verticalAlign=bottom;endArrow=open;endSize=8;strokeColor=#ff0000;rounded=0;entryX=0.5;entryY=0;entryDx=0;entryDy=0;" edge="1" source="LnioH0rZ75ULBffa3E_T-84" parent="2" target="LnioH0rZ75ULBffa3E_T-86">
          <mxGeometry relative="1" as="geometry">
            <mxPoint x="160" y="632" as="targetPoint" />
          </mxGeometry>
        </mxCell>
        <mxCell id="LnioH0rZ75ULBffa3E_T-81" value="" style="endArrow=classic;html=1;rounded=0;exitX=0.5;exitY=1;exitDx=0;exitDy=0;entryX=0.293;entryY=0.721;entryDx=0;entryDy=0;entryPerimeter=0;" edge="1" parent="2" source="LnioH0rZ75ULBffa3E_T-75" target="LnioH0rZ75ULBffa3E_T-84">
          <mxGeometry width="50" height="50" relative="1" as="geometry">
            <mxPoint x="90" y="592" as="sourcePoint" />
            <mxPoint x="140" y="542" as="targetPoint" />
          </mxGeometry>
        </mxCell>
        <mxCell id="LnioH0rZ75ULBffa3E_T-82" value="" style="endArrow=classic;html=1;rounded=0;exitX=0.5;exitY=1;exitDx=0;exitDy=0;entryX=0.75;entryY=0.5;entryDx=0;entryDy=0;entryPerimeter=0;" edge="1" parent="2" source="LnioH0rZ75ULBffa3E_T-76" target="LnioH0rZ75ULBffa3E_T-84">
          <mxGeometry width="50" height="50" relative="1" as="geometry">
            <mxPoint x="100" y="602" as="sourcePoint" />
            <mxPoint x="170" y="542" as="targetPoint" />
          </mxGeometry>
        </mxCell>
        <mxCell id="LnioH0rZ75ULBffa3E_T-83" value="" style="endArrow=classic;html=1;rounded=0;exitX=0.5;exitY=1;exitDx=0;exitDy=0;entryX=1;entryY=0.5;entryDx=0;entryDy=0;entryPerimeter=0;" edge="1" parent="2" source="LnioH0rZ75ULBffa3E_T-78" target="LnioH0rZ75ULBffa3E_T-84">
          <mxGeometry width="50" height="50" relative="1" as="geometry">
            <mxPoint x="110" y="612" as="sourcePoint" />
            <mxPoint x="220" y="552" as="targetPoint" />
          </mxGeometry>
        </mxCell>
        <mxCell id="LnioH0rZ75ULBffa3E_T-86" value="" style="ellipse;html=1;shape=endState;fillColor=#000000;strokeColor=#ff0000;" vertex="1" parent="2">
          <mxGeometry x="145" y="632" width="30" height="30" as="geometry" />
        </mxCell>
        <mxCell id="3" value="System" style="swimlane;whiteSpace=wrap" parent="1" vertex="1">
          <mxGeometry x="445" y="128" width="280" height="692" as="geometry" />
        </mxCell>
        <mxCell id="LnioH0rZ75ULBffa3E_T-42" value="Kiểm tra đăng nhập" style="rounded=1;whiteSpace=wrap;html=1;" vertex="1" parent="3">
          <mxGeometry x="35.25" y="113.5" width="94.5" height="38" as="geometry" />
        </mxCell>
        <mxCell id="LnioH0rZ75ULBffa3E_T-44" value="Tài khoản" style="rounded=0;whiteSpace=wrap;html=1;" vertex="1" parent="3">
          <mxGeometry x="144.75" y="40" width="85.25" height="48.5" as="geometry" />
        </mxCell>
        <mxCell id="LnioH0rZ75ULBffa3E_T-46" value="" style="html=1;labelBackgroundColor=#ffffff;startArrow=none;startFill=0;startSize=6;endArrow=classic;endFill=1;endSize=6;jettySize=auto;orthogonalLoop=1;strokeWidth=1;dashed=1;fontSize=14;rounded=0;exitX=0;exitY=0.5;exitDx=0;exitDy=0;entryX=0.5;entryY=0;entryDx=0;entryDy=0;" edge="1" parent="3" source="LnioH0rZ75ULBffa3E_T-44" target="LnioH0rZ75ULBffa3E_T-42">
          <mxGeometry width="60" height="60" relative="1" as="geometry">
            <mxPoint x="64.75" y="108.5" as="sourcePoint" />
            <mxPoint x="124.75" y="48.5" as="targetPoint" />
          </mxGeometry>
        </mxCell>
        <mxCell id="LnioH0rZ75ULBffa3E_T-47" value="" style="rhombus;whiteSpace=wrap;html=1;" vertex="1" parent="3">
          <mxGeometry x="39" y="205" width="87" height="55" as="geometry" />
        </mxCell>
        <mxCell id="LnioH0rZ75ULBffa3E_T-48" value="" style="endArrow=classic;html=1;rounded=0;entryX=0.5;entryY=0;entryDx=0;entryDy=0;exitX=0.5;exitY=1;exitDx=0;exitDy=0;" edge="1" parent="3" source="LnioH0rZ75ULBffa3E_T-42" target="LnioH0rZ75ULBffa3E_T-47">
          <mxGeometry width="50" height="50" relative="1" as="geometry">
            <mxPoint x="134.75" y="198.5" as="sourcePoint" />
            <mxPoint x="184.75" y="148.5" as="targetPoint" />
          </mxGeometry>
        </mxCell>
        <mxCell id="LnioH0rZ75ULBffa3E_T-43" value="" style="endArrow=classic;html=1;rounded=0;exitX=1;exitY=0.5;exitDx=0;exitDy=0;entryX=0;entryY=0.5;entryDx=0;entryDy=0;" edge="1" parent="1" source="LnioH0rZ75ULBffa3E_T-41" target="LnioH0rZ75ULBffa3E_T-42">
          <mxGeometry width="50" height="50" relative="1" as="geometry">
            <mxPoint x="330" y="290" as="sourcePoint" />
            <mxPoint x="380" y="240" as="targetPoint" />
          </mxGeometry>
        </mxCell>
        <mxCell id="LnioH0rZ75ULBffa3E_T-50" value="" style="endArrow=classic;html=1;rounded=0;exitX=1;exitY=0.5;exitDx=0;exitDy=0;entryX=0;entryY=0.5;entryDx=0;entryDy=0;" edge="1" parent="1" source="LnioH0rZ75ULBffa3E_T-49" target="LnioH0rZ75ULBffa3E_T-42">
          <mxGeometry width="50" height="50" relative="1" as="geometry">
            <mxPoint x="370" y="370" as="sourcePoint" />
            <mxPoint x="420" y="320" as="targetPoint" />
          </mxGeometry>
        </mxCell>
        <mxCell id="LnioH0rZ75ULBffa3E_T-51" value="" style="endArrow=classic;html=1;rounded=0;entryX=1;entryY=0.5;entryDx=0;entryDy=0;exitX=0;exitY=0.5;exitDx=0;exitDy=0;" edge="1" parent="1" source="LnioH0rZ75ULBffa3E_T-47" target="LnioH0rZ75ULBffa3E_T-49">
          <mxGeometry width="50" height="50" relative="1" as="geometry">
            <mxPoint x="330" y="440" as="sourcePoint" />
            <mxPoint x="380" y="390" as="targetPoint" />
          </mxGeometry>
        </mxCell>
        <mxCell id="LnioH0rZ75ULBffa3E_T-52" value="Sai" style="text;html=1;align=center;verticalAlign=middle;resizable=0;points=[];autosize=1;strokeColor=none;fillColor=none;" vertex="1" parent="1">
          <mxGeometry x="450" y="338" width="40" height="30" as="geometry" />
        </mxCell>
        <mxCell id="LnioH0rZ75ULBffa3E_T-53" value="" style="endArrow=classic;html=1;rounded=0;exitX=0.5;exitY=1;exitDx=0;exitDy=0;entryX=1;entryY=0.5;entryDx=0;entryDy=0;" edge="1" parent="1" source="LnioH0rZ75ULBffa3E_T-47" target="LnioH0rZ75ULBffa3E_T-54">
          <mxGeometry width="50" height="50" relative="1" as="geometry">
            <mxPoint x="510" y="490" as="sourcePoint" />
            <mxPoint x="528" y="450" as="targetPoint" />
            <Array as="points">
              <mxPoint x="528" y="444" />
            </Array>
          </mxGeometry>
        </mxCell>
      </root>
    </mxGraphModel>
  </diagram>
</mxfile>
